<?xml version="1.0" encoding="UTF-8" standalone="no"?>
<!DOCTYPE svg PUBLIC "-//W3C//DTD SVG 1.1//EN"
 "http://www.w3.org/Graphics/SVG/1.1/DTD/svg11.dtd">
<!-- Generated by graphviz version 8.1.0 (20230707.0739)
 -->
<!-- Pages: 1 -->
<svg width="623pt" height="260pt"
 viewBox="0.00 0.00 623.25 260.00" xmlns="http://www.w3.org/2000/svg" xmlns:xlink="http://www.w3.org/1999/xlink">
<g id="graph0" class="graph" transform="scale(1 1) rotate(0) translate(4 256)">
<polygon fill="white" stroke="none" points="-4,4 -4,-256 619.25,-256 619.25,4 -4,4"/>
<!-- [root] azurerm_network_security_group.nsg (expand) -->
<g id="node1" class="node">
<title>[root] azurerm_network_security_group.nsg (expand)</title>
<polygon fill="none" stroke="black" points="227.5,-108 0,-108 0,-72 227.5,-72 227.5,-108"/>
<text text-anchor="middle" x="113.75" y="-84.58" font-family="Times New Roman,serif" font-size="14.00">azurerm_network_security_group.nsg</text>
</g>
<!-- [root] provider[&quot;registry.terraform.io/hashicorp/azurerm&quot;] -->
<g id="node4" class="node">
<title>[root] provider[&quot;registry.terraform.io/hashicorp/azurerm&quot;]</title>
<polygon fill="none" stroke="black" points="330.75,-36 46.83,-18 330.75,0 614.67,-18 330.75,-36"/>
<text text-anchor="middle" x="330.75" y="-12.58" font-family="Times New Roman,serif" font-size="14.00">provider[&quot;registry.terraform.io/hashicorp/azurerm&quot;]</text>
</g>
<!-- [root] azurerm_network_security_group.nsg (expand)&#45;&gt;[root] provider[&quot;registry.terraform.io/hashicorp/azurerm&quot;] -->
<g id="edge1" class="edge">
<title>[root] azurerm_network_security_group.nsg (expand)&#45;&gt;[root] provider[&quot;registry.terraform.io/hashicorp/azurerm&quot;]</title>
<path fill="none" stroke="black" d="M167.95,-71.52C200.69,-60.96 242.31,-47.53 275.27,-36.9"/>
<polygon fill="black" stroke="black" points="276.21,-39.95 284.65,-33.55 274.06,-33.29 276.21,-39.95"/>
</g>
<!-- [root] azurerm_resource_group.rg (expand) -->
<g id="node2" class="node">
<title>[root] azurerm_resource_group.rg (expand)</title>
<polygon fill="none" stroke="black" points="416.38,-108 245.12,-108 245.12,-72 416.38,-72 416.38,-108"/>
<text text-anchor="middle" x="330.75" y="-84.58" font-family="Times New Roman,serif" font-size="14.00">azurerm_resource_group.rg</text>
</g>
<!-- [root] azurerm_resource_group.rg (expand)&#45;&gt;[root] provider[&quot;registry.terraform.io/hashicorp/azurerm&quot;] -->
<g id="edge2" class="edge">
<title>[root] azurerm_resource_group.rg (expand)&#45;&gt;[root] provider[&quot;registry.terraform.io/hashicorp/azurerm&quot;]</title>
<path fill="none" stroke="black" d="M330.75,-71.7C330.75,-64.24 330.75,-55.32 330.75,-46.97"/>
<polygon fill="black" stroke="black" points="334.25,-47.1 330.75,-37.1 327.25,-47.1 334.25,-47.1"/>
</g>
<!-- [root] azurerm_virtual_network.vnet (expand) -->
<g id="node3" class="node">
<title>[root] azurerm_virtual_network.vnet (expand)</title>
<polygon fill="none" stroke="black" points="615.25,-108 434.25,-108 434.25,-72 615.25,-72 615.25,-108"/>
<text text-anchor="middle" x="524.75" y="-84.58" font-family="Times New Roman,serif" font-size="14.00">azurerm_virtual_network.vnet</text>
</g>
<!-- [root] azurerm_virtual_network.vnet (expand)&#45;&gt;[root] provider[&quot;registry.terraform.io/hashicorp/azurerm&quot;] -->
<g id="edge3" class="edge">
<title>[root] azurerm_virtual_network.vnet (expand)&#45;&gt;[root] provider[&quot;registry.terraform.io/hashicorp/azurerm&quot;]</title>
<path fill="none" stroke="black" d="M476.3,-71.52C447.48,-61.12 410.97,-47.95 381.73,-37.39"/>
<polygon fill="black" stroke="black" points="383.3,-33.88 372.71,-33.78 380.93,-40.47 383.3,-33.88"/>
</g>
<!-- [root] provider[&quot;registry.terraform.io/hashicorp/azurerm&quot;] (close) -->
<g id="node5" class="node">
<title>[root] provider[&quot;registry.terraform.io/hashicorp/azurerm&quot;] (close)</title>
<ellipse fill="none" stroke="black" cx="330.75" cy="-162" rx="252.66" ry="18"/>
<text text-anchor="middle" x="330.75" y="-156.57" font-family="Times New Roman,serif" font-size="14.00">[root] provider[&quot;registry.terraform.io/hashicorp/azurerm&quot;] (close)</text>
</g>
<!-- [root] provider[&quot;registry.terraform.io/hashicorp/azurerm&quot;] (close)&#45;&gt;[root] azurerm_network_security_group.nsg (expand) -->
<g id="edge4" class="edge">
<title>[root] provider[&quot;registry.terraform.io/hashicorp/azurerm&quot;] (close)&#45;&gt;[root] azurerm_network_security_group.nsg (expand)</title>
<path fill="none" stroke="black" d="M277.94,-143.97C247.83,-134.25 209.87,-122.01 178.03,-111.74"/>
<polygon fill="black" stroke="black" points="179.52,-108.22 168.93,-108.48 177.37,-114.88 179.52,-108.22"/>
</g>
<!-- [root] provider[&quot;registry.terraform.io/hashicorp/azurerm&quot;] (close)&#45;&gt;[root] azurerm_resource_group.rg (expand) -->
<g id="edge5" class="edge">
<title>[root] provider[&quot;registry.terraform.io/hashicorp/azurerm&quot;] (close)&#45;&gt;[root] azurerm_resource_group.rg (expand)</title>
<path fill="none" stroke="black" d="M330.75,-143.7C330.75,-136.24 330.75,-127.32 330.75,-118.97"/>
<polygon fill="black" stroke="black" points="334.25,-119.1 330.75,-109.1 327.25,-119.1 334.25,-119.1"/>
</g>
<!-- [root] provider[&quot;registry.terraform.io/hashicorp/azurerm&quot;] (close)&#45;&gt;[root] azurerm_virtual_network.vnet (expand) -->
<g id="edge6" class="edge">
<title>[root] provider[&quot;registry.terraform.io/hashicorp/azurerm&quot;] (close)&#45;&gt;[root] azurerm_virtual_network.vnet (expand)</title>
<path fill="none" stroke="black" d="M378.21,-143.88C404.78,-134.29 438.14,-122.25 466.31,-112.09"/>
<polygon fill="black" stroke="black" points="467.22,-115.12 475.43,-108.43 464.84,-108.54 467.22,-115.12"/>
</g>
<!-- [root] root -->
<g id="node6" class="node">
<title>[root] root</title>
<ellipse fill="none" stroke="black" cx="330.75" cy="-234" rx="50.07" ry="18"/>
<text text-anchor="middle" x="330.75" y="-228.57" font-family="Times New Roman,serif" font-size="14.00">[root] root</text>
</g>
<!-- [root] root&#45;&gt;[root] provider[&quot;registry.terraform.io/hashicorp/azurerm&quot;] (close) -->
<g id="edge7" class="edge">
<title>[root] root&#45;&gt;[root] provider[&quot;registry.terraform.io/hashicorp/azurerm&quot;] (close)</title>
<path fill="none" stroke="black" d="M330.75,-215.7C330.75,-208.24 330.75,-199.32 330.75,-190.97"/>
<polygon fill="black" stroke="black" points="334.25,-191.1 330.75,-181.1 327.25,-191.1 334.25,-191.1"/>
</g>
</g>
</svg>
